<svg xmlns="http://www.w3.org/2000/svg" xmlns:xlink="http://www.w3.org/1999/xlink" version="1.1" id="图层_1" x="0px" y="0px" viewBox="0 0 101 101" style="enable-background:new 0 0 101 101;" xml:space="preserve">
<style type="text/css">
	.st0{fill:#FFFFFF;}
	.st1{fill:#C40F23;}
	.st2{fill:#E6C08F;}
	.st3{fill:#B18249;}
	.st4{fill:#201813;}
</style>
<g>
	<g>
		<path class="st0" d="M30.4,67.1c1.4,0.3,2.2,1.9,1.7,3.2c-0.4,1.3-1.9,2-3.2,1.5c-1.2-0.4-1.8-1.8-1.5-2.9    C27.8,67.6,29.2,66.7,30.4,67.1z M30.1,68c-0.8-0.2-1.6,0.3-1.8,1.1c-0.2,0.6,0.1,1.3,0.6,1.6c0.6,0.5,1.7,0.4,2.2-0.3    c0.3-0.5,0.4-1.1,0.1-1.7C30.9,68.3,30.5,68.1,30.1,68z"/>
	</g>
	<g>
		<path class="st0" d="M20.9,62.5c0.7,0.3,1.2,1,1.3,1.7c0.2,0.8-0.1,1.7-0.7,2.2c-0.6,0.6-1.6,0.8-2.4,0.5c-0.9-0.3-1.5-1.1-1.6-2    c-0.1-0.8,0.2-1.7,0.9-2.2C19.1,62.2,20.1,62.1,20.9,62.5z M20.5,63.2c-0.4-0.2-0.9-0.2-1.3,0c-0.7,0.3-1,1.2-0.7,1.9    c0.3,0.8,1.3,1.2,2.1,0.8c0.6-0.3,1-1,0.8-1.7C21.3,63.8,20.9,63.4,20.5,63.2z"/>
	</g>
	<path class="st0" d="M30.5,68.4c0.5,0,0.8,0.7,0.6,1.1c-0.2,0.5-0.9,0.7-1.3,0.2C29.4,69.2,29.8,68.3,30.5,68.4z"/>
	<path class="st0" d="M20.6,63.6c0.4,0,0.7,0.4,0.6,0.8c0,0.5-0.5,0.9-1,0.8c-0.3-0.1-0.6-0.4-0.6-0.8   C19.7,63.9,20.2,63.5,20.6,63.6z"/>
	<g>
		<path class="st1" d="M28.8,56c2.2,0.9,4.2,2.6,5.3,4.8c0.9,1.7,1.4,3.5,1.5,5.4c0.1,1.4,0.1,2.8-0.1,4.1c-0.2,1.7-0.4,3.4-0.8,5.1    c-0.3,1.1-0.6,2.2-0.9,3.3c-0.6,1.9-1.9,3.6-3.4,4.9c-1,0.8-2.1,1.6-3.3,2.2c-1.5,0.7-3.2,1.1-4.9,1.2c-2.2,0.1-4.4-0.3-6.4-1.1    c-2-0.8-3.8-2.1-5.2-3.8c-1.4-1.6-2.5-3.5-3.3-5.5c-1-2.8-0.8-5.9,0.3-8.6c0.5-1.2,1.1-2.2,1.8-3.2c1-1.3,2.2-2.4,3.4-3.5    c2.1-1.9,4.5-3.5,7-4.9c2.1-1.1,4.5-1.3,6.8-0.9C27.5,55.6,28.2,55.8,28.8,56z M20.7,58c-1.1-0.3-2.3,0.1-3.3,0.6    c-1,0.6-1.5,1.6-1.9,2.6c-0.1,0.3-0.3,0.6-0.6,0.7c-0.7,0.3-1.4,0.6-2,1c-0.6,0.4-1,1.1-1.3,1.8c-0.2,0.5-0.4,1.1-0.3,1.6    c0.1,0.7,0.4,1.3,0.8,1.9c0.3,0.6,0.9,1,1.5,1.3c0.8,0.4,1.6,0.4,2.4,0.6c1.3,0.4,2.7,0.6,4.1,0.9c0.7,0.1,1.3,0.6,2,0.9    c0.5,0.3,1.1,0.6,1.6,1.1c0.5,0.5,1,1.1,1.5,1.6c0.8,0.7,1.8,1.1,2.4,1.9c0.4,0.6,1,1,1.8,1.2c0.7,0.2,1.5,0.2,2.2,0    c0.9-0.4,1.7-1.2,2.1-2.1c0.5-1,0.7-2.3,0.2-3.4c-0.2-0.4-0.2-0.9,0.1-1.3c0.3-0.5,0.6-1.1,0.8-1.7c0.4-0.9,0.4-1.9,0.1-2.7    c-0.3-0.8-0.9-1.4-1.5-1.9c-1.1-0.8-2.6-1.1-3.9-1.4c-1.1-0.2-2.1-0.7-3.1-1c-0.6-0.2-1-0.6-1.4-1C24,60.2,23,59.4,22,58.7    C21.6,58.4,21.2,58.1,20.7,58z M10.5,67.9c-0.5-0.1-1-0.1-1.4,0.1c-0.4,0.3-0.8,0.6-1,1.1c-0.3,0.5-0.5,1.1-0.4,1.7    c0,0.5,0.3,0.9,0.5,1.3c0.1,0.2,0.1,0.4,0.4,0.4c0.1-0.3,0-0.7,0-1c0.1-0.5,0.3-1,0.5-1.4c0.2-0.4,0.5-0.8,1-0.8    c0.3,0,0.6-0.1,0.8-0.3c0.1-0.2,0.3-0.5,0.2-0.7C11,68,10.7,68,10.5,67.9z M17,71.3c-1.1-0.3-2.3-0.3-3.3,0.3    c-0.7,0.5-1.4,1-1.9,1.7c-0.8,1-1.1,2.4-1.2,3.6c-0.1,1.2,0.4,2.4,0.9,3.5c0.2,0.5,0.6,0.9,1,1.1c0.2,0.1,0.3-0.1,0.3-0.2    c0-0.3-0.1-0.6-0.1-0.9c-0.1-0.7,0-1.3,0.1-2c0.2-0.8,0.4-1.6,0.8-2.2c0.6-1,1.7-1.7,2.8-2.1c0.4-0.2,0.9-0.3,1.2-0.6    c0.3-0.3,0.5-0.7,0.4-1.1C18,71.8,17.5,71.5,17,71.3z M24.3,75.1c-0.4-0.1-0.9-0.1-1.2,0.2c-0.4,0.5-0.5,1.2-0.3,1.7    c0.5,1.6,0.4,3.4-0.5,4.8c-0.7,0.9-1.4,1.8-2.5,2.3c-0.3,0.1-0.5,0.2-0.8,0.4c-0.1,0.1-0.2,0.3,0,0.4c0.5,0.3,1.2,0.3,1.8,0.2    c0.8-0.2,1.5-0.3,2.3-0.7c1.1-0.5,2-1.5,2.6-2.5c0.7-1.1,0.9-2.4,0.8-3.6c0-0.9-0.5-1.7-1.1-2.3C25.1,75.6,24.7,75.3,24.3,75.1z     M30.9,78.5c-0.4,0.1-0.6,0.5-0.6,0.9c0,0.4,0.4,0.7,0.4,1.1c0,0.7-0.5,1.3-0.9,1.9c-0.3,0.4-0.8,0.5-1,0.9c0.3,0.1,0.5,0,0.8,0    c0.4-0.1,0.9-0.1,1.2-0.4c0.5-0.4,0.9-1,1.2-1.6c0.2-0.6,0.2-1.3-0.2-1.9C31.5,79,31.3,78.6,30.9,78.5z M12.9,69.5    c-0.4-0.1-0.9,0-1.3,0.1c-0.5,0.1-1,0.1-1.4,0.5c-0.8,0.8-1.4,1.8-1.6,2.9c-0.1,0.7,0.1,1.4,0.3,2.1c0.1,0.5,0.3,1.1,0.7,1.4    c0.2,0.2,0.4-0.1,0.4-0.4c0.1-0.8,0.1-1.6,0.2-2.3c0-0.5,0.4-0.9,0.7-1.3c0.4-0.4,0.8-0.8,1.4-1c0.4-0.1,0.9-0.3,1.2-0.6    c0.3-0.2,0.4-0.6,0.2-0.9C13.6,69.7,13.2,69.5,12.9,69.5z M28.1,77.4c-0.4-0.1-0.8,0.2-0.9,0.6c-0.2,0.5,0,1.1,0.2,1.6    c0.2,0.5,0.1,1.1,0,1.6c-0.1,0.5-0.2,1-0.6,1.3c-0.6,0.4-1.1,0.9-1.7,1.3c-0.2,0.1-0.3,0.3-0.4,0.5c0,0.2,0.1,0.3,0.3,0.3    c0.8,0.1,1.6-0.3,2.3-0.6c1.2-0.4,2-1.5,2.4-2.7c0.2-0.5,0.4-1.1,0.1-1.6c-0.2-0.4-0.4-0.9-0.6-1.3C29,77.9,28.6,77.5,28.1,77.4z"/>
	</g>
	<path class="st1" d="M9.5,81.1c1,1.3,2.1,2.6,3.5,3.5c2.3,1.7,5.2,2.5,8,2.7c-0.1,0.4-0.3,0.8-0.7,1c-0.4,0.2-0.9,0.2-1.3,0.2   c-0.7-0.1-1.3-0.3-2-0.5c-0.6-0.2-1.2-0.3-1.8-0.6c-0.9-0.5-1.9-1-2.7-1.6c-1-0.7-2.1-1.3-2.9-2.3c-0.3-0.4-0.5-0.8-0.6-1.3   C9,81.8,9.3,81.5,9.5,81.1z"/>
	<g>
		<g>
			<path class="st2" d="M20.6,58.2c0.4,0.1,0.8,0.3,1.1,0.6c0.8,0.6,1.6,1.2,2.4,1.9c0.5,0.5,0.9,1,1.5,1.4c0.3,0.2,0.5,0.3,0.8,0.4     c1,0.4,2,0.7,3.1,1c1.1,0.3,2.2,0.5,3.2,1c0.7,0.4,1.3,0.9,1.7,1.6c0.5,0.9,0.5,2,0.1,2.9c-0.2,0.6-0.5,1.2-0.8,1.7     c-0.2,0.4-0.3,0.9-0.2,1.3c0.1,0.3,0.3,0.7,0.3,1c0.1,0.9-0.1,1.8-0.5,2.6c-0.4,0.8-1.1,1.5-1.9,1.8c-0.6,0.2-1.3,0.2-1.9,0     c-0.6-0.1-1.2-0.5-1.6-1c-0.4-0.5-1-1-1.6-1.3c-0.7-0.4-1.3-0.9-1.8-1.5c-0.4-0.5-0.8-1-1.4-1.4c-0.6-0.4-1.2-0.7-1.8-1     c-0.6-0.4-1.3-0.5-2-0.6c-1.2-0.2-2.3-0.4-3.4-0.8c-0.9-0.1-1.8-0.3-2.5-0.7c-0.4-0.2-0.8-0.6-1-1.1c-0.3-0.5-0.6-1-0.7-1.6     c-0.1-0.6,0.2-1.2,0.4-1.7c0.2-0.6,0.6-1.2,1.2-1.5c0.4-0.3,0.9-0.5,1.3-0.7c0.4-0.2,0.8-0.3,1.1-0.6c0.4-0.4,0.4-1,0.7-1.5     c0.3-0.5,0.6-1,1-1.3c0.4-0.3,0.9-0.5,1.3-0.7C19.2,58.1,19.9,58.1,20.6,58.2z M31.4,64.9c-1.1,0-2.2,0.1-3.2,0.5     c-0.5,0.2-1.1,0-1.6-0.2c-0.1-0.1-0.4,0-0.4,0.2c0.2,0.3,0.5,0.3,0.8,0.4c0.9,0.3,1.8,0,2.7,0.1c1.1,0,2.2,0.5,3,1.3     c0.3,0.3,0.6,0.5,0.9,0.7c-0.1-0.2-0.3-0.5,0-0.7c0-0.1,0-0.2,0-0.4c0.1,0,0.2,0.1,0.4,0.1c0-0.2-0.1-0.3-0.2-0.4     c0.1,0,0.2-0.1,0.3-0.1c-0.4-0.5-1.1-0.7-1.6-1.1C32.2,65.1,31.8,64.9,31.4,64.9z M19,58.6c0.1,0.1,0.1,0.2,0.2,0.3     c-0.1,0-0.2,0.1-0.3,0.1c0,0.1,0.1,0.2,0.1,0.2c0,0-0.1,0.1-0.2,0.1c0,0.1,0,0.3,0,0.4c-0.2,0-0.3,0-0.5,0     c-0.1,0.1-0.2,0.2-0.3,0.2c0.4,0.1,0.9,0.1,1.3,0.2c1,0.4,2.2,0.8,2.8,1.8c0.5,0.9,1,1.8,1.9,2.3c0.2,0.1,0.3,0,0.5-0.1     c-0.4-0.4-0.8-0.7-1.1-1.3c-0.4-0.7-0.4-1.6-0.9-2.2c-0.4-0.6-1-1-1.6-1.4C20.4,59,19.7,58.6,19,58.6z M30.6,67     c-0.7-0.2-1.4-0.1-2,0.2c-1,0.6-1.6,1.9-1.2,3c0.2,0.8,0.8,1.4,1.6,1.7c0.8,0.3,1.6,0.1,2.3-0.3c0.9-0.6,1.3-1.7,1-2.8     C32.1,68,31.4,67.2,30.6,67z M20.5,62.2c-1.1-0.3-2.4,0.2-2.9,1.3c-0.6,1-0.2,2.4,0.7,3.1c0.7,0.5,1.7,0.7,2.5,0.3     c0.9-0.4,1.5-1.3,1.6-2.3C22.4,63.6,21.6,62.5,20.5,62.2z M25,68.4c0.1,0.3,0.3,0.6,0.2,1c-0.1,0.3-0.4,0.5-0.6,0.8     c0.4-0.1,0.7-0.5,0.7-0.9C25.4,69,25.2,68.7,25,68.4z M21.3,68c-0.1,0.2,0,0.5,0,0.7c0,0,0.1-0.1,0.1-0.1     c-0.1-0.3-0.1-0.6,0.1-0.9c0.2-0.3,0.5-0.3,0.8-0.5C21.8,67.3,21.4,67.6,21.3,68z M14.5,64.2c-0.3,0.2-0.6,0.5-0.8,0.8     c-0.4,0.5-0.5,1.2-0.2,1.7c0.2,0.5,0.7,0.7,1.2,0.9c0.9,0.4,1.9,0.7,2.9,0.7c0.4,0,0.9-0.2,1.3-0.1c0.5,0.1,1,0.4,1.5,0.6     c-0.1-0.5-0.7-0.8-1.1-1.1c-0.6-0.3-1.3-0.4-1.9-0.7c-0.5-0.2-0.9-0.5-1.4-0.7c-0.7-0.3-0.9-1.1-1.1-1.8     C14.8,64.4,14.8,64.1,14.5,64.2z M31.4,72.9c-0.6,0.2-1.1,0.5-1.8,0.4c-0.3,0-0.5-0.2-0.8-0.3c-0.4-0.2-0.8-0.4-1.2-0.6     c-0.6-0.4-1.1-0.9-1.7-1.3c-0.5-0.2-1-0.5-1.5-0.3c0.6,0.4,1.4,0.6,1.7,1.4c0.5,1.1,1.5,2,2.5,2.6c0.3,0.2,0.6,0.4,1,0.5     c0.5,0.1,1.1-0.1,1.4-0.5c0.3-0.4,0.4-1,0.5-1.5C31.7,73.1,31.6,72.8,31.4,72.9z M22.1,68.8c-0.2,0.5,0.1,1.2,0.6,1.3     c0.4,0.1,0.8,0,1-0.3c-0.4,0.1-0.7,0.4-1.1,0.1C22.2,69.7,22.1,69.2,22.1,68.8z M19.7,70c-0.5-0.2-1-0.2-1.5-0.3     c0,0.1,0,0.1,0,0.2c-0.1,0-0.1-0.1-0.2-0.1c0,0-0.1,0-0.1,0c-0.5,0-0.5,0-1.1-0.1c-0.6-0.1-1.1-0.4-1.6-0.6     c-0.6-0.3-1.1-0.5-1.6-0.9c-0.3-0.2-0.4-0.6-0.7-0.9c0.1,0.5,0.5,1,0.9,1.2c1.1,0.6,2.2,1.2,3.4,1.5c0.8,0.2,1.7,0.2,2.5,0.4     c0.8,0.2,1.6,0.5,2.4,0.9c0.9,0.6,1.8,1.1,2.6,1.9c0.5,0.5,0.8,1.1,1.4,1.4c0.8,0.8,1.9,1.6,3.1,1.8c0.4,0,0.7,0.1,1.1-0.1     c-0.4,0-0.8,0-1.2,0c-1-0.1-1.8-0.7-2.5-1.4c-0.2-0.2-0.4-0.5-0.6-0.7c-0.3-0.3-0.6-0.7-0.9-1.1c-0.6-0.7-1.4-1.2-2.2-1.8     C21.9,70.6,20.8,70.3,19.7,70z"/>
		</g>
	</g>
	<g>
		<path class="st3" d="M10.2,68.1c0.3,0,0.6,0.1,0.7,0.4c-0.1,0.3-0.3,0.6-0.6,0.6c-0.3,0.1-0.6,0-0.9,0.2c-0.5,0.4-0.8,1-1,1.6    c-0.2,0.4-0.2,0.8-0.2,1.2c-0.2-0.5-0.5-0.9-0.4-1.5c0.1-0.8,0.4-1.6,1.1-2.1C9.3,68.1,9.8,68,10.2,68.1z"/>
		<path class="st3" d="M14.5,71.5c0.8-0.2,1.6-0.2,2.4,0c0.4,0.1,0.9,0.4,1,0.9c0.1,0.6-0.4,1.1-1,1.3c-1.2,0.4-2.4,1.1-3.2,2.1    c-0.5,0.7-0.8,1.5-1,2.3c-0.1,0.6-0.2,1.2-0.2,1.8c0,0.5,0.1,1,0.1,1.5c-0.5-0.2-0.8-0.7-1-1.2c-0.3-0.7-0.6-1.5-0.7-2.2    c-0.2-1.1,0-2.3,0.4-3.4c0.3-0.9,1-1.6,1.7-2.2C13.5,72,14,71.7,14.5,71.5z"/>
		<path class="st3" d="M23.9,75.2c0.6,0,1,0.4,1.3,0.8c0.5,0.6,1,1.4,1.1,2.2c0,1.1-0.1,2.3-0.7,3.4c-0.8,1.4-2.2,2.6-3.9,3    c-0.9,0.2-1.8,0.6-2.7,0.1c0.4-0.3,0.8-0.4,1.2-0.7c0.8-0.5,1.5-1.3,2.1-2c0.9-1.2,1.2-2.9,0.8-4.4c-0.1-0.5-0.4-1.1-0.2-1.7    C23,75.5,23.4,75.2,23.9,75.2z"/>
		<path class="st3" d="M30.9,78.8c0.3,0.1,0.5,0.3,0.7,0.5c0.4,0.5,0.4,1.3,0.2,1.9c-0.2,0.6-0.6,1.1-1.1,1.5    c-0.4,0.3-0.9,0.3-1.3,0.4c0.3-0.2,0.6-0.5,0.8-0.8c0.4-0.6,0.8-1.2,0.7-1.9c0-0.4-0.4-0.6-0.4-1C30.5,79.1,30.6,78.8,30.9,78.8z"/>
		<path class="st3" d="M11.6,69.8c0.5-0.1,1.1-0.3,1.6,0c0.4,0.2,0.5,0.7,0.3,1c-0.3,0.4-0.8,0.5-1.2,0.6c-0.5,0.1-0.9,0.5-1.3,0.8    c-0.4,0.4-0.8,0.9-1,1.4c-0.1,0.9,0,1.9-0.3,2.7c-0.3-0.4-0.6-0.9-0.7-1.4c-0.2-0.7-0.4-1.4-0.3-2.1c0.1-1.1,0.7-2,1.5-2.8    C10.6,69.9,11.1,69.9,11.6,69.8z"/>
		<path class="st3" d="M27.3,78.1c0.1-0.4,0.6-0.6,1-0.4c0.3,0.1,0.5,0.4,0.7,0.7c0.2,0.4,0.4,0.8,0.6,1.2c0.1,0.3,0.1,0.5,0.1,0.8    c-0.2,1-0.6,2-1.4,2.7c-0.5,0.5-1.2,0.7-1.8,0.9c-0.5,0.2-1.1,0.4-1.6,0.3c0.6-0.7,1.4-1.2,2-1.7c0.4-0.3,0.6-0.9,0.7-1.4    c0.1-0.6,0.2-1.2,0-1.7C27.4,79,27.2,78.6,27.3,78.1z"/>
	</g>
	<g>
		<g>
			<path class="st4" d="M28.9,55.7c2.4,1,4.4,2.7,5.5,5c0.7,1.4,1.2,2.8,1.4,4.4c0.2,1.4,0.3,2.7,0.2,4.1c-0.1,1.3-0.2,2.6-0.4,3.9     c-0.2,1.5-0.6,3-1,4.4c-0.3,1.2-0.8,2.5-1.5,3.6c-0.9,1.4-2.1,2.5-3.4,3.5c-1.4,1.1-3.1,2-4.8,2.4c-1.1,0.3-2.3,0.4-3.5,0.3     c-0.2,0.6-0.5,1.1-1,1.4c-0.6,0.2-1.2,0.2-1.8,0.1c-0.8-0.2-1.5-0.5-2.3-0.7c-2.1-0.6-3.8-1.9-5.5-3.1c-0.8-0.5-1.5-1.1-1.9-2     c-0.2-0.4-0.3-0.8-0.2-1.2c0.1-0.4,0.4-0.7,0.6-1c-0.6-0.8-1-1.7-1.5-2.6c-0.6-1.1-1-2.3-1.2-3.5c-0.4-2.5,0-5,1.1-7.3     c0.8-1.7,1.8-3.2,3.1-4.5c2.2-2.2,4.5-4.1,7.2-5.7c1-0.6,1.9-1.2,3-1.6c1.7-0.6,3.5-0.8,5.3-0.6C27.1,55.2,28,55.3,28.9,55.7z      M28.8,56c-0.7-0.3-1.4-0.4-2.1-0.5c-2.3-0.4-4.7-0.2-6.8,0.9c-2.5,1.3-4.9,3-7,4.9c-1.2,1.1-2.4,2.2-3.4,3.5     c-0.7,1-1.4,2.1-1.8,3.2c-1.1,2.7-1.4,5.8-0.3,8.6c0.8,2,1.8,3.9,3.3,5.5c1.4,1.7,3.2,3,5.2,3.8c2,0.8,4.2,1.1,6.4,1.1     c1.7,0,3.4-0.4,4.9-1.2c1.2-0.6,2.2-1.4,3.3-2.2c1.5-1.3,2.8-3,3.4-4.9c0.4-1.1,0.7-2.2,0.9-3.3c0.4-1.7,0.6-3.4,0.8-5.1     c0.1-1.4,0.2-2.7,0.1-4.1c-0.1-1.9-0.7-3.7-1.5-5.4C33,58.6,31.1,56.9,28.8,56z M9.5,81.1c-0.2,0.3-0.5,0.6-0.5,1     c0,0.5,0.3,0.9,0.6,1.3c0.8,1,1.9,1.6,2.9,2.3c0.9,0.6,1.8,1.1,2.7,1.6c0.6,0.3,1.2,0.4,1.8,0.6c0.7,0.2,1.3,0.4,2,0.5     c0.4,0,0.9,0,1.3-0.2c0.4-0.2,0.5-0.6,0.7-1c-2.9-0.1-5.7-1-8-2.7C11.6,83.7,10.4,82.5,9.5,81.1z"/>
		</g>
		<g>
			<path class="st4" d="M20.7,58c0.5,0.1,0.9,0.4,1.4,0.7c1,0.8,2,1.5,2.8,2.4c0.4,0.4,0.8,0.9,1.4,1c1,0.4,2,0.8,3.1,1     c1.3,0.4,2.8,0.6,3.9,1.4c0.7,0.5,1.3,1.1,1.5,1.9c0.3,0.9,0.2,1.9-0.1,2.7c-0.3,0.6-0.5,1.2-0.8,1.7c-0.2,0.4-0.3,0.9-0.1,1.3     c0.5,1.1,0.3,2.4-0.2,3.4c-0.4,0.9-1.1,1.7-2.1,2.1c-0.7,0.3-1.5,0.2-2.2,0c-0.7-0.2-1.3-0.6-1.8-1.2c-0.7-0.8-1.7-1.2-2.4-1.9     c-0.6-0.5-1-1.1-1.5-1.6c-0.4-0.5-1-0.7-1.6-1.1c-0.6-0.4-1.2-0.8-2-0.9c-1.4-0.3-2.8-0.5-4.1-0.9c-0.8-0.2-1.7-0.2-2.4-0.6     c-0.6-0.3-1.1-0.7-1.5-1.3c-0.3-0.6-0.7-1.2-0.8-1.9c-0.1-0.6,0.1-1.1,0.3-1.6c0.3-0.7,0.7-1.4,1.3-1.8c0.6-0.4,1.3-0.7,2-1     c0.3-0.1,0.5-0.4,0.6-0.7c0.4-1,0.9-2.1,1.9-2.6C18.4,58,19.5,57.7,20.7,58z M20.6,58.2c-0.7-0.2-1.5-0.1-2.2,0.2     c-0.5,0.2-0.9,0.4-1.3,0.7c-0.4,0.3-0.7,0.8-1,1.3c-0.3,0.5-0.3,1.1-0.7,1.5c-0.3,0.3-0.7,0.4-1.1,0.6c-0.5,0.2-0.9,0.5-1.3,0.7     c-0.6,0.3-1,0.9-1.2,1.5c-0.2,0.5-0.4,1.1-0.4,1.7c0.1,0.6,0.4,1.1,0.7,1.6c0.2,0.4,0.6,0.8,1,1.1c0.8,0.5,1.7,0.6,2.5,0.7     c1.1,0.3,2.3,0.5,3.4,0.8c0.7,0.1,1.4,0.3,2,0.6c0.6,0.4,1.2,0.7,1.8,1c0.6,0.3,1,0.9,1.4,1.4c0.5,0.6,1.1,1.1,1.8,1.5     c0.6,0.4,1.1,0.8,1.6,1.3c0.4,0.5,0.9,0.9,1.6,1c0.6,0.1,1.3,0.2,1.9,0c0.8-0.3,1.5-1,1.9-1.8c0.4-0.8,0.6-1.7,0.5-2.6     c0-0.4-0.2-0.7-0.3-1c-0.1-0.4-0.1-0.9,0.2-1.3c0.3-0.6,0.6-1.1,0.8-1.7c0.4-0.9,0.4-2-0.1-2.9c-0.4-0.7-1-1.2-1.7-1.6     c-1-0.6-2.1-0.7-3.2-1c-1.1-0.2-2.1-0.6-3.1-1c-0.3-0.1-0.6-0.2-0.8-0.4c-0.6-0.4-1-0.9-1.5-1.4c-0.7-0.7-1.6-1.3-2.4-1.9     C21.4,58.6,21,58.3,20.6,58.2z"/>
		</g>
		<path class="st4" d="M31.4,64.9c0.4,0,0.8,0.2,1.1,0.4c0.5,0.4,1.1,0.6,1.6,1.1c-0.1,0-0.2,0.1-0.3,0.1c0,0.2,0.1,0.3,0.2,0.4    c-0.1,0-0.2-0.1-0.4-0.1c0,0.1,0,0.2,0,0.4c-0.3,0.2-0.1,0.5,0,0.7c-0.3-0.2-0.6-0.5-0.9-0.7c-0.8-0.8-1.9-1.3-3-1.3    c-0.9,0-1.8,0.2-2.7-0.1c-0.3-0.1-0.6-0.2-0.8-0.4c-0.1-0.2,0.2-0.3,0.4-0.2c0.5,0.2,1.1,0.4,1.6,0.2C29.3,65,30.4,64.9,31.4,64.9    z"/>
		<path class="st4" d="M19,58.6c0.7,0.1,1.4,0.4,2,0.8c0.6,0.4,1.2,0.8,1.6,1.4c0.5,0.6,0.4,1.5,0.9,2.2c0.2,0.5,0.7,0.9,1.1,1.3    c-0.1,0.1-0.3,0.2-0.5,0.1c-0.9-0.5-1.4-1.4-1.9-2.3c-0.6-1-1.7-1.4-2.8-1.8c-0.4-0.2-0.9-0.1-1.3-0.2c0.1-0.1,0.2-0.2,0.3-0.2    c0.2,0,0.3,0,0.5,0c0-0.1,0-0.3,0-0.4c0,0,0.1-0.1,0.2-0.1c0-0.1-0.1-0.2-0.1-0.2c0.1,0,0.2-0.1,0.3-0.1    C19.1,58.8,19,58.7,19,58.6z"/>
		<g>
			<path class="st4" d="M30.6,67c0.8,0.2,1.5,1,1.7,1.8c0.3,1-0.2,2.2-1,2.8c-0.7,0.5-1.5,0.6-2.3,0.3c-0.8-0.3-1.4-0.9-1.6-1.7     c-0.3-1.1,0.2-2.4,1.2-3C29.2,66.9,29.9,66.8,30.6,67z M30.4,67.1c-1.3-0.3-2.7,0.5-3,1.8c-0.3,1.2,0.3,2.5,1.5,2.9     c1.2,0.5,2.8-0.2,3.2-1.5C32.6,69,31.8,67.3,30.4,67.1z"/>
		</g>
		<g>
			<path class="st4" d="M20.5,62.2c1.1,0.3,1.9,1.4,1.9,2.5c0,1-0.7,1.9-1.6,2.3c-0.8,0.3-1.8,0.2-2.5-0.3c-0.9-0.7-1.3-2.1-0.7-3.1     C18.1,62.5,19.4,61.9,20.5,62.2z M20.9,62.5c-0.8-0.4-1.9-0.3-2.6,0.3c-0.7,0.5-1,1.4-0.9,2.2c0.1,0.9,0.8,1.7,1.6,2     c0.8,0.3,1.8,0.1,2.4-0.5c0.6-0.6,0.9-1.4,0.7-2.2C22.1,63.5,21.6,62.8,20.9,62.5z"/>
		</g>
		<g>
			<path class="st4" d="M30.1,68c0.4,0.1,0.8,0.3,1,0.7c0.3,0.5,0.3,1.2-0.1,1.7c-0.5,0.7-1.5,0.8-2.2,0.3c-0.5-0.4-0.7-1-0.6-1.6     C28.5,68.3,29.4,67.8,30.1,68z M30.5,68.4c-0.7-0.1-1.1,0.8-0.7,1.3c0.3,0.4,1.1,0.3,1.3-0.2C31.3,69.1,31.1,68.4,30.5,68.4z"/>
		</g>
		<g>
			<path class="st4" d="M20.5,63.2c0.4,0.2,0.8,0.6,0.9,1.1c0.2,0.7-0.2,1.4-0.8,1.7c-0.8,0.4-1.8,0-2.1-0.8c-0.3-0.7,0-1.6,0.7-1.9     C19.6,63,20.1,63,20.5,63.2z M20.6,63.6c-0.5-0.1-0.9,0.4-0.9,0.8c0,0.3,0.2,0.7,0.6,0.8c0.5,0.1,1-0.3,1-0.8     C21.3,64,21,63.6,20.6,63.6z"/>
		</g>
		<path class="st4" d="M25,68.4c0.2,0.2,0.4,0.5,0.3,0.8c0,0.4-0.3,0.8-0.7,0.9c0.2-0.3,0.5-0.5,0.6-0.8C25.3,69,25.1,68.8,25,68.4z    "/>
		<path class="st4" d="M21.3,68c0.1-0.4,0.6-0.7,1-0.7c-0.3,0.1-0.6,0.2-0.8,0.5c-0.2,0.3-0.2,0.6-0.1,0.9c0,0-0.1,0.1-0.1,0.1    C21.2,68.5,21.2,68.3,21.3,68z"/>
		<path class="st4" d="M14.5,64.2c0.2-0.1,0.3,0.2,0.3,0.4c0.2,0.7,0.4,1.5,1.1,1.8c0.5,0.2,0.9,0.5,1.4,0.7    c0.6,0.3,1.3,0.3,1.9,0.7c0.4,0.2,1,0.5,1.1,1.1c-0.5-0.2-1-0.5-1.5-0.6c-0.4-0.1-0.9,0.1-1.3,0.1c-1,0-2-0.3-2.9-0.7    c-0.4-0.2-1-0.4-1.2-0.9c-0.3-0.6-0.1-1.2,0.2-1.7C14,64.7,14.2,64.4,14.5,64.2z"/>
		<path class="st4" d="M31.4,72.9c0.2-0.1,0.3,0.2,0.3,0.3c-0.1,0.5-0.2,1.1-0.5,1.5c-0.3,0.4-0.9,0.6-1.4,0.5    c-0.4-0.1-0.7-0.3-1-0.5c-1-0.6-2-1.5-2.5-2.6c-0.3-0.7-1.1-1-1.7-1.4c0.5-0.2,1,0.1,1.5,0.3c0.6,0.3,1.1,0.9,1.7,1.3    c0.4,0.2,0.8,0.4,1.2,0.6c0.2,0.1,0.5,0.3,0.8,0.3C30.2,73.4,30.8,73.1,31.4,72.9z"/>
		<path class="st4" d="M22.1,68.8c0,0.4,0.1,0.9,0.5,1.2c0.4,0.2,0.8,0,1.1-0.1c-0.2,0.3-0.6,0.4-1,0.3    C22.2,69.9,21.9,69.3,22.1,68.8z"/>
		<path class="st4" d="M18.2,69.7c0.5,0.1,1,0.1,1.5,0.3c1.1,0.4,2.2,0.6,3.2,1.3c0.8,0.5,1.6,1,2.2,1.8c0.3,0.4,0.6,0.8,0.9,1.1    c0.2,0.2,0.4,0.5,0.6,0.7c0.7,0.7,1.6,1.2,2.5,1.4c0.4,0.1,0.8,0,1.2,0c-0.3,0.2-0.7,0.1-1.1,0.1c-1.2-0.1-2.2-0.9-3.1-1.8    c-0.6-0.3-0.9-1-1.4-1.4c-0.7-0.8-1.7-1.3-2.6-1.9c-0.7-0.4-1.6-0.6-2.4-0.9c-0.8-0.2-1.7-0.2-2.5-0.4c-1.2-0.3-2.3-0.9-3.4-1.5    c-0.5-0.3-0.9-0.7-0.9-1.2c0.2,0.3,0.3,0.7,0.7,0.9c0.5,0.4,1.1,0.6,1.6,0.9c0.5,0.2,1,0.5,1.6,0.6"/>
		<g>
			<path class="st4" d="M10.5,67.9c0.2,0.1,0.5,0.1,0.6,0.3c0.1,0.3-0.1,0.5-0.2,0.7c-0.2,0.3-0.5,0.3-0.8,0.3c-0.5,0-0.8,0.4-1,0.8     c-0.2,0.5-0.5,0.9-0.5,1.4c0,0.3,0,0.7,0,1c-0.2,0-0.3-0.3-0.4-0.4c-0.2-0.4-0.4-0.8-0.5-1.3c0-0.6,0.2-1.2,0.4-1.7     c0.2-0.5,0.6-0.8,1-1.1C9.5,67.8,10.1,67.8,10.5,67.9z M10.2,68.1c-0.5-0.1-0.9,0.1-1.3,0.4c-0.7,0.5-1,1.3-1.1,2.1     c-0.1,0.5,0.2,1,0.4,1.5c0-0.4,0.1-0.8,0.2-1.2c0.2-0.6,0.5-1.2,1-1.6c0.2-0.2,0.6-0.1,0.9-0.2c0.3-0.1,0.5-0.4,0.6-0.6     C10.8,68.1,10.5,68.1,10.2,68.1z"/>
		</g>
		<g>
			<path class="st4" d="M17,71.3c0.5,0.1,1,0.5,1.1,1c0.1,0.4-0.1,0.8-0.4,1.1c-0.3,0.3-0.8,0.4-1.2,0.6c-1.1,0.4-2.1,1.1-2.8,2.1     c-0.5,0.7-0.6,1.5-0.8,2.2c-0.1,0.6-0.2,1.3-0.1,2c0,0.3,0.1,0.6,0.1,0.9c0,0.2-0.2,0.3-0.3,0.2c-0.5-0.2-0.8-0.7-1-1.1     c-0.5-1.1-0.9-2.3-0.9-3.5c0.1-1.3,0.4-2.6,1.2-3.6c0.5-0.7,1.2-1.2,1.9-1.7C14.7,71,16,71.1,17,71.3z M14.5,71.5     c-0.5,0.2-1,0.5-1.4,0.9c-0.7,0.6-1.4,1.3-1.7,2.2c-0.4,1.1-0.6,2.2-0.4,3.4c0.1,0.8,0.4,1.5,0.7,2.2c0.2,0.5,0.5,1,1,1.2     c0-0.5-0.1-1-0.1-1.5c0-0.6,0.1-1.2,0.2-1.8c0.2-0.8,0.4-1.6,1-2.3c0.8-1.1,1.9-1.8,3.2-2.1c0.5-0.2,1.1-0.7,1-1.3     c-0.1-0.5-0.5-0.8-1-0.9C16.1,71.3,15.3,71.3,14.5,71.5z"/>
		</g>
		<g>
			<path class="st4" d="M24.3,75.1c0.5,0.1,0.8,0.5,1.1,0.9c0.6,0.6,1,1.4,1.1,2.3c0.1,1.3-0.1,2.6-0.8,3.6c-0.7,1-1.6,1.9-2.6,2.5     c-0.7,0.4-1.5,0.5-2.3,0.7c-0.6,0.1-1.2,0.2-1.8-0.2c-0.2-0.1-0.1-0.3,0-0.4c0.2-0.2,0.5-0.3,0.8-0.4c1-0.5,1.8-1.4,2.5-2.3     c1-1.4,1-3.2,0.5-4.8c-0.2-0.6-0.1-1.3,0.3-1.7C23.4,75,23.9,75,24.3,75.1z M23.9,75.2c-0.5-0.1-0.9,0.3-0.9,0.7     c-0.2,0.6,0.1,1.1,0.2,1.7c0.3,1.5,0.1,3.2-0.8,4.4c-0.6,0.8-1.2,1.5-2.1,2c-0.4,0.2-0.8,0.4-1.2,0.7c0.8,0.5,1.8,0.1,2.7-0.1     c1.6-0.4,3-1.6,3.9-3c0.6-1,0.7-2.2,0.7-3.4c-0.1-0.8-0.5-1.6-1.1-2.2C24.9,75.7,24.5,75.3,23.9,75.2z"/>
		</g>
		<g>
			<path class="st4" d="M30.9,78.5c0.4,0.1,0.7,0.4,0.9,0.7c0.4,0.5,0.4,1.3,0.2,1.9c-0.3,0.6-0.6,1.2-1.2,1.6     c-0.4,0.3-0.8,0.3-1.2,0.4c-0.3,0-0.5,0.1-0.8,0c0.3-0.4,0.8-0.5,1-0.9c0.4-0.6,0.9-1.1,0.9-1.9c0-0.4-0.4-0.7-0.4-1.1     C30.3,79.1,30.5,78.6,30.9,78.5z M30.9,78.8c-0.3,0-0.3,0.4-0.4,0.6c0,0.4,0.4,0.6,0.4,1c0.1,0.7-0.4,1.3-0.7,1.9     c-0.2,0.3-0.5,0.6-0.8,0.8c0.4-0.1,0.9-0.1,1.3-0.4c0.5-0.4,0.9-0.9,1.1-1.5c0.2-0.6,0.2-1.3-0.2-1.9     C31.4,79.1,31.2,78.8,30.9,78.8z"/>
		</g>
		<g>
			<path class="st4" d="M12.9,69.5c0.3,0.1,0.7,0.3,0.8,0.6c0.1,0.3,0,0.7-0.2,0.9c-0.3,0.3-0.8,0.5-1.2,0.6c-0.6,0.1-1,0.6-1.4,1     c-0.3,0.3-0.7,0.8-0.7,1.3c0,0.8,0,1.6-0.2,2.3c0,0.2-0.2,0.6-0.4,0.4c-0.4-0.4-0.6-0.9-0.7-1.4c-0.2-0.7-0.4-1.4-0.3-2.1     c0.1-1.1,0.8-2.2,1.6-2.9c0.4-0.4,0.9-0.4,1.4-0.5C12,69.5,12.4,69.3,12.9,69.5z M11.6,69.8c-0.5,0.1-1,0.1-1.3,0.5     C9.5,71,8.9,71.9,8.8,73c-0.1,0.7,0.1,1.4,0.3,2.1c0.1,0.5,0.3,1,0.7,1.4c0.3-0.9,0.2-1.8,0.3-2.7c0.1-0.6,0.5-1,1-1.4     c0.4-0.4,0.8-0.7,1.3-0.8c0.4-0.1,0.9-0.3,1.2-0.6c0.3-0.3,0.1-0.9-0.3-1C12.7,69.5,12.1,69.7,11.6,69.8z"/>
		</g>
		<g>
			<path class="st4" d="M28.1,77.4c0.5,0.1,0.9,0.5,1.1,0.9c0.2,0.4,0.4,0.9,0.6,1.3c0.2,0.5,0,1.1-0.1,1.6     c-0.4,1.2-1.2,2.3-2.4,2.7c-0.7,0.3-1.5,0.7-2.3,0.6c-0.1,0-0.3-0.1-0.3-0.3c0.1-0.2,0.2-0.3,0.4-0.5c0.5-0.5,1.1-0.9,1.7-1.3     c0.4-0.3,0.5-0.8,0.6-1.3c0.1-0.5,0.2-1.1,0-1.6c-0.2-0.5-0.4-1-0.2-1.6C27.3,77.6,27.7,77.4,28.1,77.4z M27.3,78.1     c-0.1,0.5,0.1,1,0.2,1.4c0.2,0.6,0.1,1.2,0,1.7c-0.1,0.5-0.2,1-0.7,1.4c-0.7,0.6-1.5,1-2,1.7c0.6,0.1,1.1-0.1,1.6-0.3     c0.6-0.3,1.3-0.5,1.8-0.9c0.8-0.7,1.2-1.7,1.4-2.7c0.1-0.3,0-0.6-0.1-0.8c-0.2-0.4-0.4-0.8-0.6-1.2c-0.1-0.3-0.4-0.6-0.7-0.7     C28,77.5,27.4,77.7,27.3,78.1z"/>
		</g>
	</g>
	<g>
		<g>
			<path class="st0" d="M74.5,32.4c3.1-0.9,6.5,1.6,6.8,4.7c0.5,3-1.8,6-4.8,6.4c-2.8,0.4-5.5-1.7-6-4.4     C69.7,36.2,71.6,33,74.5,32.4z M74.8,34.5c-1.7,0.4-2.9,2.3-2.5,4c0.3,1.4,1.5,2.4,2.8,2.7c1.8,0.4,3.8-1.1,4-2.9     c0.2-1.3-0.5-2.7-1.6-3.4C76.8,34.4,75.8,34.4,74.8,34.5z"/>
		</g>
		<g>
			<path class="st0" d="M50.5,33.1c1.7,0,3.4,0.8,4.4,2.1c1.2,1.4,1.5,3.5,0.9,5.2c-0.6,1.9-2.4,3.4-4.3,3.6c-2,0.4-4.2-0.6-5.4-2.3     c-1.1-1.5-1.4-3.7-0.5-5.4C46.5,34.5,48.5,33.2,50.5,33.1z M50.5,35.1c-1.1,0-2.1,0.6-2.7,1.4c-1,1.4-0.8,3.5,0.6,4.5     c1.4,1.3,3.9,1.1,5.1-0.5c1-1.2,1-3.1-0.1-4.3C52.7,35.4,51.5,35,50.5,35.1z"/>
		</g>
		<path class="st0" d="M76.1,35c1.1-0.5,2.4,0.5,2.3,1.7c0.1,1.2-1.2,2.3-2.3,1.8C74.6,37.9,74.6,35.6,76.1,35z"/>
		<path class="st0" d="M51,35.6c0.8-0.3,1.8,0.1,2.1,0.9c0.5,1,0,2.3-1.1,2.6c-0.8,0.2-1.6-0.2-1.9-1C49.5,37.3,50,36,51,35.6z"/>
	</g>
	<g>
		<path class="st1" d="M59.6,11.8c5.5-0.5,11.1,0.9,15.6,4.1c3.5,2.5,6.5,5.7,8.7,9.4c1.7,2.6,3.1,5.5,4.2,8.4    c1.5,3.6,2.9,7.3,3.8,11.1c0.6,2.5,1.1,5,1.5,7.6c0.7,4.5,0,9.2-1.8,13.4c-1.2,2.8-2.4,5.5-4.2,7.9c-2.3,3.1-5.2,5.7-8.6,7.5    c-4.3,2.4-9.1,4.1-14,4.5c-4.9,0.5-9.9-0.3-14.5-2.1c-4.6-1.8-8.7-4.5-12.4-7.7c-5-4.5-7.8-11-8.3-17.6c-0.3-2.8-0.1-5.6,0.3-8.4    c0.5-3.7,1.9-7.1,3.1-10.6c2.2-6.1,5.3-11.8,8.9-17.1c3.1-4.4,7.8-7.3,12.8-9C56.4,12.4,58,12,59.6,11.8z M45.2,24.3    c-2.6,0.6-4.6,2.6-6,4.7c-1.4,2.2-1.4,4.9-1,7.3c0.1,0.7,0,1.5-0.5,2c-1.1,1.3-2.1,2.7-3,4.2c-0.9,1.5-1,3.3-0.8,5    c0.1,1.2,0.3,2.5,1,3.6c0.8,1.4,2.3,2.2,3.6,3c1.3,0.8,2.8,1.2,4.3,1c1.9-0.1,3.7-0.9,5.6-1.4c3.1-0.6,6.1-1.7,9.2-2.5    c1.6-0.5,3.3-0.3,4.9-0.2c1.4,0.1,2.9,0,4.2,0.5c1.6,0.6,3.1,1.2,4.7,1.6c2.3,0.6,4.7,0.3,6.9,1.3c1.5,0.7,3.2,1,4.8,0.6    c1.6-0.4,3.3-1.1,4.4-2.4c1.5-1.7,2.2-4.1,2-6.4c-0.1-2.6-1-5.4-3.1-7.1c-0.8-0.6-1.3-1.6-1.2-2.7c0.1-1.5,0-2.9-0.1-4.4    c-0.2-2.1-1.1-4.2-2.6-5.7c-1.4-1.3-3.2-1.9-5-2.1c-3.2-0.5-6.3,0.6-9.4,1.3c-2.4,0.6-4.9,0.9-7.3,1.3c-1.3,0.2-2.6-0.2-3.9-0.7    c-2.6-1-5.4-1.4-8.1-1.9C47.6,24.1,46.4,24,45.2,24.3z M35.2,55c-1,0.3-2.1,0.8-2.7,1.7c-0.6,1-1,2.1-1,3.2c0,1.3,0.2,2.7,0.9,3.9    c0.5,0.9,1.5,1.4,2.3,2.1c0.4,0.3,0.7,0.7,1.2,0.5c-0.2-0.7-0.8-1.4-1.1-2.1c-0.4-1.1-0.4-2.3-0.4-3.4c0-1,0.2-2.2,1.2-2.7    c0.6-0.3,1.2-0.8,1.3-1.5c0.1-0.6,0.2-1.3-0.3-1.7C36.3,54.8,35.7,54.9,35.2,55z M52,55.1c-2.5,0.6-5,1.8-6.3,4.1    c-0.9,1.7-1.7,3.5-2,5.4c-0.5,2.9,0.2,5.9,1.4,8.6c1.2,2.5,3.3,4.4,5.4,6.1c0.9,0.7,2.1,1.2,3.3,1.2c0.4,0,0.6-0.5,0.4-0.8    c-0.3-0.6-0.7-1.1-1.1-1.7c-0.9-1.2-1.4-2.6-1.8-4.1c-0.5-1.8-0.9-3.6-0.7-5.4c0.2-2.7,1.6-5.2,3.4-7.3c0.7-0.7,1.5-1.4,1.8-2.4    c0.2-0.9,0.3-2-0.4-2.7C54.4,55,53.1,54.8,52,55.1z M70.5,55.1c-0.9,0.2-1.9,0.7-2.1,1.6c-0.4,1.4,0.2,2.9,1.2,3.8    c2.7,2.6,4.4,6.4,3.9,10.2c-0.4,2.5-1,5.1-2.5,7.2c-0.4,0.6-0.8,1.1-1.1,1.7c-0.2,0.3,0,0.8,0.4,0.8c1.4,0.1,2.7-0.6,3.7-1.5    c1.4-1.2,2.8-2.3,3.8-3.8c1.6-2.3,2.5-5,2.7-7.8c0.2-2.9-0.8-5.7-2.2-8.2c-1-1.7-2.8-2.8-4.6-3.5C72.7,55.2,71.6,54.9,70.5,55.1z     M87.4,55c-0.7,0.5-0.6,1.6-0.2,2.3c0.3,0.9,1.5,0.9,1.9,1.7c0.7,1.4,0.4,3.1,0.2,4.7c-0.1,1.1-1.1,1.8-1.2,2.9    c0.6-0.1,1-0.5,1.5-0.9c0.8-0.6,1.7-1.2,2.1-2.1c0.7-1.4,0.8-3,0.7-4.5c-0.3-1.4-0.9-3-2.3-3.6C89.2,55.2,88.3,54.8,87.4,55z     M41.6,55.6c-1,0.2-1.8,1-2.6,1.6c-0.9,0.7-1.9,1.3-2.3,2.5c-0.8,2.4-1,5.1-0.1,7.6c0.5,1.6,1.7,2.7,2.8,4c0.8,0.9,1.7,1.8,3,2.2    c0.7,0.1,0.7-0.7,0.5-1.2c-0.6-1.7-1.4-3.3-2.1-4.9c-0.4-1.1-0.2-2.3,0.1-3.3c0.4-1.2,0.7-2.5,1.7-3.4c0.8-0.7,1.5-1.5,1.9-2.5    c0.3-0.7,0.1-1.6-0.6-2.1C43.3,55.5,42.4,55.5,41.6,55.6z M80.6,55.7c-0.9,0.3-1.4,1.2-1.3,2.1c0.2,1.2,1.2,2.2,2.1,3    c0.9,0.9,1.3,2.1,1.6,3.3c0.3,1.1,0.6,2.3,0.1,3.3c-0.7,1.5-1.4,2.9-2,4.4c-0.2,0.4-0.3,0.9-0.2,1.4c0.1,0.4,0.5,0.4,0.8,0.3    c1.7-0.7,2.8-2.3,4-3.6c1.9-2.1,2.5-5.2,1.9-8c-0.2-1.2-0.4-2.5-1.4-3.4c-0.8-0.7-1.7-1.4-2.6-2C82.9,55.7,81.7,55.3,80.6,55.7z"/>
	</g>
	<path class="st1" d="M47,82.8c3.4,1.6,7,2.9,10.7,3.4c6.5,0.9,13.1-0.4,19-3.1c0.1,0.9,0.1,1.9-0.4,2.7c-0.6,0.9-1.5,1.4-2.5,1.8   c-1.4,0.6-3,0.7-4.5,1c-1.4,0.2-2.9,0.6-4.3,0.7c-2.4,0.1-4.8,0-7.2-0.3c-2.8-0.4-5.7-0.4-8.3-1.5c-1-0.5-1.9-1.1-2.5-2   C46.7,84.6,47,83.7,47,82.8z"/>
	<g>
		<g>
			<path class="st2" d="M45.4,24.9c0.9-0.2,1.9-0.2,2.8,0c2.3,0.4,4.6,0.8,6.8,1.4c1.5,0.4,2.9,1.2,4.4,1.3c0.7,0.1,1.4-0.1,2-0.2     c2.4-0.4,4.9-0.6,7.2-1.3c2.5-0.5,4.9-1.3,7.5-1.2c1.7,0.1,3.6,0.4,5,1.5c1.9,1.3,3,3.5,3.2,5.8c0.1,1.5,0.2,2.9,0.1,4.4     c-0.1,1,0.3,2,1,2.8c0.6,0.6,1.2,1,1.7,1.7c1.2,1.6,1.7,3.7,1.7,5.7c0.1,2-0.6,4.1-2,5.6c-1,1.1-2.5,1.7-3.9,2.1     c-1.4,0.4-2.9,0.2-4.2-0.4c-1.4-0.6-3-0.9-4.5-1c-1.8-0.1-3.5-0.6-5.2-1.2c-1.4-0.5-2.8-1.2-4.3-1.3c-1.6-0.1-3.2-0.1-4.8-0.2     c-1.6-0.1-3.2,0.4-4.7,0.9c-2.6,0.8-5.1,1.5-7.7,2.1c-1.9,0.6-3.8,1.3-5.9,1.2c-1.2,0-2.3-0.5-3.2-1.1c-1.1-0.7-2.3-1.4-3-2.5     c-0.8-1.1-0.9-2.5-1.1-3.9c-0.2-1.5,0-3,0.8-4.3c0.6-1,1.2-1.9,1.9-2.9c0.5-0.7,1.3-1.3,1.5-2.2c0.3-1.2-0.2-2.5-0.1-3.8     c0.1-1.2,0.2-2.5,0.7-3.7c0.5-1.1,1.2-1.9,2-2.8C42.4,26.2,43.8,25.3,45.4,24.9z M74.2,26.9C72,28,70,29.4,68.4,31.2     c-0.9,1-2.2,1.3-3.5,1.4c-0.4,0-0.9,0.4-0.5,0.8c0.6,0.3,1.4,0.1,2.1,0c2-0.4,3.6-1.8,5.4-2.7c2.3-1.1,5-1.3,7.4-0.5     c0.8,0.3,1.7,0.4,2.5,0.5c-0.4-0.3-1.1-0.7-0.7-1.4c-0.1-0.3-0.2-0.5-0.3-0.8c0.3-0.1,0.5-0.1,0.8-0.2c-0.2-0.3-0.5-0.5-0.8-0.7     c0.1-0.1,0.4-0.4,0.5-0.5c-1.4-0.5-2.9-0.4-4.3-0.6C75.9,26.4,75,26.5,74.2,26.9z M42.4,27.3c0.3,0.1,0.5,0.3,0.8,0.4     c-0.2,0.2-0.3,0.3-0.5,0.5c0.1,0.1,0.3,0.3,0.4,0.4c0,0.1-0.1,0.3-0.2,0.4c0.1,0.3,0.3,0.6,0.4,0.9c-0.3,0.1-0.7,0.2-1,0.4     c-0.1,0.2-0.2,0.5-0.3,0.8c1-0.2,1.8-0.8,2.8-0.9c2.5-0.3,5.2-0.7,7.5,0.7c1.9,1.2,3.9,2.6,6.3,2.6c0.4,0.1,0.6-0.3,0.9-0.6     c-1.2-0.4-2.5-0.6-3.5-1.4c-1.6-0.9-2.4-2.7-4.1-3.5c-1.5-0.7-3.1-1.1-4.7-1.2C45.7,26.6,44,26.6,42.4,27.3z M74.7,32.1     c-1.5,0.3-2.9,1.2-3.8,2.5c-1.4,2.2-1.2,5.4,0.6,7.3c1.2,1.4,3.2,2.1,5,1.8c1.8-0.2,3.4-1.5,4.3-3.1c1.1-2.1,0.8-4.9-0.8-6.6     C78.7,32.4,76.7,31.7,74.7,32.1z M49.4,33.1c-2.6,0.5-4.6,3-4.5,5.7c-0.1,2.7,2.1,5.2,4.7,5.6c2,0.3,4.1-0.4,5.4-1.9     c1.5-1.7,1.7-4.2,0.8-6.2C54.7,33.8,51.9,32.5,49.4,33.1z M64.9,40.8c0.5,0.6,1.3,0.9,1.5,1.7c0.2,0.8-0.2,1.5-0.3,2.2     c0.6-0.7,0.8-1.7,0.4-2.6C66.2,41.5,65.6,41.1,64.9,40.8z M57,44c0.1,0.6,0.5,1,0.9,1.5c0-0.1,0.1-0.2,0.1-0.2     c-0.4-0.5-0.9-1.2-0.7-1.9c0.1-0.7,0.7-1.2,1.1-1.8C57.4,41.9,56.8,43,57,44z M39.4,43.3c-0.5,0.7-0.6,1.6-0.8,2.4     c-0.3,1.4,0.1,2.9,1.3,3.7c0.9,0.7,2.2,0.6,3.3,0.6c2.3-0.1,4.6-0.6,6.6-1.7c0.9-0.5,1.6-1.3,2.6-1.6c1.2-0.4,2.5-0.2,3.7-0.3     c-0.8-0.9-2.2-1-3.3-1c-1.6,0-3.1,0.6-4.6,0.7c-1.2,0.2-2.4,0-3.6,0c-1.8,0.2-3.1-1.3-4.1-2.5C40.2,43.3,39.7,42.8,39.4,43.3z      M82.5,43.2c-0.9,1-1.8,2.1-3.1,2.7c-0.6,0.3-1.2,0.2-1.8,0.2c-1,0-2,0.1-3,0c-1.6-0.1-3.2-0.8-4.8-0.7c-1.2,0-2.5,0.1-3.3,1     c1.6,0.1,3.5-0.2,4.9,0.9c2.2,1.7,5,2.5,7.8,2.6c0.8,0,1.7,0.1,2.5-0.1c1.2-0.4,2.1-1.4,2.3-2.6c0.2-1.2-0.2-2.5-0.6-3.6     C83.3,43.2,82.8,42.7,82.5,43.2z M59.4,44.6c0.1,1.2,1.4,2.2,2.6,2c0.8-0.2,1.5-0.9,1.7-1.7c-0.6,0.6-1.1,1.5-2.1,1.5     C60.6,46.4,60,45.4,59.4,44.6z M55.9,49.4c-1.1,0.1-2.2,0.7-3.2,1c0.1,0.1,0.2,0.2,0.2,0.4c-0.2,0-0.3-0.1-0.5-0.1     c0,0.1-0.1,0.2-0.2,0.2c-0.9,0.6-1,0.6-2.4,0.9c-1.2,0.5-2.6,0.4-3.9,0.5c-1.4,0-2.9,0.1-4.3-0.1c-0.9-0.1-1.5-0.8-2.3-1.2     c0.7,1,2,1.5,3.2,1.5c2.8,0.1,5.6,0.1,8.4-0.5c1.9-0.5,3.6-1.3,5.5-1.8c1.9-0.4,3.8-0.8,5.7-0.8c2.4,0.2,4.9,0.4,7.2,1.2     c1.5,0.4,2.8,1.5,4.4,1.4c2.6,0.8,5.5,1.3,8.1,0.3c0.7-0.3,1.6-0.6,2-1.3c-0.8,0.4-1.5,0.9-2.4,1.2c-2.1,0.7-4.4,0.5-6.5-0.1     c-0.7-0.2-1.3-0.6-2-0.8c-1-0.3-1.9-0.9-2.9-1.3c-2-0.8-4.1-1-6.2-1.2C61.1,48.4,58.5,49.1,55.9,49.4z"/>
		</g>
	</g>
	<g>
		<path class="st3" d="M34.8,55.7c0.6-0.2,1.3-0.5,1.8,0c0.1,0.7,0,1.4-0.5,1.9c-0.5,0.4-1.2,0.6-1.5,1.3c-0.7,1.3-0.5,2.8-0.4,4.2    c0,0.9,0.4,1.8,0.8,2.6c-0.9-0.8-2-1.4-2.4-2.5c-0.6-1.7-0.8-3.6,0-5.3C32.9,56.8,33.8,56,34.8,55.7z"/>
		<path class="st3" d="M47,58.1c1.3-1.3,3.1-2.1,4.9-2.6c1-0.3,2.2-0.1,2.9,0.7c0.9,1.1,0.3,2.8-0.6,3.7c-2.1,2.1-3.7,4.7-4.2,7.7    c-0.4,1.9,0,3.8,0.5,5.6c0.3,1.3,0.8,2.7,1.4,3.9c0.5,1,1.3,1.9,1.8,2.9c-1.3,0-2.4-0.5-3.4-1.3c-1.4-1.2-2.8-2.3-3.8-3.8    c-1.5-2.1-2.4-4.7-2.7-7.3c-0.2-2.1,0.2-4.3,1.1-6.2C45.6,60.2,46.1,59,47,58.1z"/>
		<path class="st3" d="M69.9,55.7c1.2-0.6,2.5-0.1,3.6,0.3c1.7,0.6,3.4,1.7,4.4,3.3c1.3,2.3,2.3,4.8,2.2,7.5    c-0.2,3.8-1.7,7.6-4.6,10.2c-1.5,1.3-3.1,3.1-5.3,3c0.5-0.9,1.2-1.7,1.7-2.6c1.1-1.9,1.6-4.1,2-6.3c0.6-3.5-0.7-7.1-3-9.8    c-0.8-1-2-1.8-2.2-3.1C68.4,57.2,68.9,56.1,69.9,55.7z"/>
		<path class="st3" d="M87.6,55.5c0.6-0.2,1.3,0.1,1.9,0.3c1.4,0.6,2.1,2.1,2.4,3.6c0.1,1.4-0.1,2.8-0.7,4.1    c-0.5,0.9-1.4,1.5-2.2,2.1c0.4-0.8,0.7-1.5,0.8-2.4c0.2-1.5,0.4-3.2-0.5-4.5c-0.4-0.7-1.5-0.8-1.8-1.6    C87.3,56.6,87.2,55.9,87.6,55.5z"/>
		<path class="st3" d="M39.3,57.6c0.9-0.7,1.9-1.7,3.2-1.6c0.9,0,1.8,0.9,1.6,1.8c-0.3,1-1.1,1.8-1.9,2.5c-0.9,0.8-1.3,1.9-1.6,3    c-0.4,1.3-0.8,2.6-0.4,3.9c0.7,1.9,1.9,3.7,2.4,5.8c-1.1-0.4-2-1.1-2.8-2c-1-1.2-2.2-2.4-2.8-4c-0.9-2.3-0.7-4.9,0.1-7.2    C37.5,58.8,38.5,58.3,39.3,57.6z"/>
		<path class="st3" d="M79.8,57.8c-0.2-0.9,0.7-1.8,1.6-1.8c0.8,0,1.5,0.3,2.1,0.7c0.8,0.6,1.6,1.3,2.4,1.9c0.5,0.4,0.8,1,1,1.6    c0.7,2.2,0.9,4.7,0,6.9c-0.5,1.5-1.6,2.6-2.6,3.7c-0.8,1-1.8,1.9-3,2.2c0.5-2,1.5-3.8,2.3-5.6c0.5-1.1,0.2-2.4-0.2-3.5    c-0.4-1.3-0.8-2.6-1.8-3.6C80.9,59.7,80.1,58.9,79.8,57.8z"/>
	</g>
	<g>
		<g>
			<path class="st4" d="M59.4,11c5.8-0.6,11.8,0.9,16.5,4.3c2.8,2.1,5.3,4.5,7.3,7.4c1.8,2.6,3.4,5.3,4.7,8.1     c1.2,2.7,2.3,5.5,3.3,8.3c1.1,3.2,2,6.6,2.6,10c0.6,2.9,1,5.8,0.7,8.8c-0.3,3.7-1.5,7.3-3.1,10.6c-1.7,3.8-4.1,7.2-7.2,9.9     c-2,1.8-4.3,3.2-6.7,4.4c0.3,1.3,0.3,2.7-0.6,3.8c-0.9,1.1-2.2,1.7-3.5,2.1c-1.8,0.5-3.6,0.7-5.4,1.1c-4.7,1-9.6,0.2-14.3-0.4     c-2.1-0.3-4.3-0.7-6-2c-0.7-0.6-1.5-1.3-1.7-2.2c-0.1-0.9,0.1-1.8,0.2-2.7c-2-1-3.9-2.3-5.7-3.6c-2.3-1.7-4.4-3.6-6.1-5.8     c-3.5-4.5-5.3-10.2-5.6-15.9c-0.2-4.1,0.2-8.3,1.5-12.3c2.1-6.6,4.8-13.1,8.4-19.1c1.4-2.2,2.6-4.4,4.4-6.3     c2.8-3,6.3-5.2,10.1-6.7C55.2,11.9,57.3,11.2,59.4,11z M59.6,11.8c-1.6,0.2-3.2,0.6-4.7,1.1c-5,1.7-9.7,4.7-12.8,9     c-3.6,5.3-6.7,11.1-8.9,17.1c-1.3,3.4-2.6,6.9-3.1,10.6c-0.4,2.8-0.6,5.6-0.3,8.4c0.5,6.6,3.3,13.1,8.3,17.6     c3.7,3.2,7.8,6,12.4,7.7c4.6,1.9,9.6,2.7,14.5,2.1c4.9-0.5,9.7-2.1,14-4.5c3.4-1.8,6.3-4.4,8.6-7.5c1.8-2.4,3.1-5.1,4.2-7.9     c1.7-4.2,2.5-8.9,1.8-13.4c-0.4-2.5-0.9-5.1-1.5-7.6c-0.9-3.8-2.3-7.5-3.8-11.1c-1.2-2.9-2.5-5.8-4.2-8.4     c-2.3-3.7-5.3-6.9-8.7-9.4C70.7,12.6,65,11.2,59.6,11.8z M47,82.8c0,0.9-0.3,1.8,0,2.6c0.6,0.9,1.5,1.6,2.5,2     c2.6,1.1,5.5,1.2,8.3,1.5c2.4,0.3,4.8,0.4,7.2,0.3c1.5-0.1,2.9-0.4,4.3-0.7c1.5-0.3,3.1-0.5,4.5-1c0.9-0.4,1.9-0.9,2.5-1.8     c0.5-0.8,0.5-1.8,0.4-2.7c-5.9,2.7-12.5,4-19,3.1C54,85.7,50.4,84.4,47,82.8z"/>
		</g>
		<g>
			<path class="st4" d="M45.2,24.3c1.1-0.3,2.3-0.2,3.5,0c2.7,0.5,5.5,0.9,8.1,1.9c1.2,0.5,2.5,0.9,3.9,0.7c2.4-0.4,4.9-0.6,7.3-1.3     c3.1-0.7,6.2-1.8,9.4-1.3c1.8,0.2,3.7,0.8,5,2.1c1.6,1.5,2.5,3.5,2.6,5.7c0.1,1.5,0.2,2.9,0.1,4.4c-0.1,1,0.4,2,1.2,2.7     c2.1,1.7,3.1,4.5,3.1,7.1c0.2,2.3-0.5,4.7-2,6.4c-1.1,1.3-2.8,2-4.4,2.4c-1.6,0.4-3.3,0.1-4.8-0.6c-2.2-1-4.7-0.7-6.9-1.3     c-1.6-0.4-3.2-1.1-4.7-1.6c-1.4-0.5-2.8-0.4-4.2-0.5c-1.6-0.1-3.3-0.2-4.9,0.2c-3.1,0.8-6.1,1.9-9.2,2.5     c-1.8,0.5-3.6,1.3-5.6,1.4c-1.5,0.1-3-0.2-4.3-1c-1.3-0.9-2.7-1.7-3.6-3c-0.7-1.1-0.9-2.4-1-3.6c-0.2-1.7-0.1-3.5,0.8-5     c0.9-1.5,1.9-2.9,3-4.2c0.5-0.5,0.6-1.3,0.5-2c-0.4-2.5-0.3-5.2,1-7.3C40.6,26.8,42.6,24.9,45.2,24.3z M45.4,24.9     c-1.6,0.4-3.1,1.4-4.2,2.6c-0.8,0.8-1.5,1.7-2,2.8c-0.5,1.1-0.6,2.4-0.7,3.7c-0.1,1.3,0.5,2.5,0.1,3.8c-0.2,0.9-1,1.5-1.5,2.2     c-0.7,0.9-1.4,1.9-1.9,2.9c-0.8,1.3-1,2.8-0.8,4.3c0.2,1.3,0.3,2.7,1.1,3.9c0.7,1.1,1.9,1.8,3,2.5c0.9,0.6,2,1.1,3.2,1.1     c2,0.1,4-0.6,5.9-1.2c2.6-0.6,5.2-1.3,7.7-2.1c1.5-0.4,3.1-0.9,4.7-0.9c1.6,0.1,3.2,0.1,4.8,0.2c1.5,0.1,2.9,0.8,4.3,1.3     c1.7,0.6,3.4,1.1,5.2,1.2c1.5,0.1,3.1,0.4,4.5,1c1.3,0.6,2.8,0.8,4.2,0.4c1.4-0.4,2.8-1,3.9-2.1c1.4-1.5,2.1-3.6,2-5.6     c0-2-0.5-4.1-1.7-5.7c-0.5-0.7-1.1-1.2-1.7-1.7c-0.7-0.7-1.1-1.8-1-2.8c0.1-1.5,0-2.9-0.1-4.4c-0.2-2.3-1.3-4.5-3.2-5.8     c-1.5-1-3.3-1.3-5-1.5c-2.6-0.1-5,0.7-7.5,1.2c-2.4,0.6-4.8,0.9-7.2,1.3c-0.7,0.1-1.4,0.2-2,0.2c-1.6-0.1-3-0.9-4.4-1.3     c-2.2-0.6-4.5-1-6.8-1.4C47.3,24.7,46.3,24.7,45.4,24.9z"/>
		</g>
		<path class="st4" d="M74.2,26.9c0.8-0.4,1.7-0.5,2.6-0.3c1.4,0.2,3,0.1,4.3,0.6c-0.1,0.1-0.4,0.4-0.5,0.5c0.2,0.3,0.5,0.5,0.8,0.7    c-0.3,0.1-0.5,0.1-0.8,0.2c0.1,0.3,0.2,0.5,0.3,0.8c-0.4,0.6,0.3,1,0.7,1.4c-0.8-0.1-1.7-0.3-2.5-0.5c-2.4-0.8-5.1-0.7-7.4,0.5    c-1.8,0.9-3.4,2.3-5.4,2.7c-0.7,0.1-1.4,0.3-2.1,0c-0.4-0.4,0.1-0.8,0.5-0.8c1.2-0.1,2.6-0.4,3.5-1.4C70,29.4,72,28,74.2,26.9z"/>
		<path class="st4" d="M42.4,27.3c1.5-0.6,3.3-0.6,4.9-0.6c1.6,0.1,3.2,0.5,4.7,1.2c1.7,0.8,2.5,2.6,4.1,3.5c1,0.8,2.3,1,3.5,1.4    c-0.2,0.3-0.4,0.7-0.9,0.6c-2.4,0-4.4-1.4-6.3-2.6c-2.3-1.4-5-1-7.5-0.7c-1,0.1-1.9,0.7-2.8,0.9c0.1-0.3,0.1-0.5,0.3-0.8    c0.3-0.2,0.6-0.3,1-0.4c-0.1-0.3-0.3-0.6-0.4-0.9c0-0.1,0.1-0.3,0.2-0.4c-0.1-0.1-0.3-0.3-0.4-0.4c0.2-0.2,0.3-0.4,0.5-0.5    C42.9,27.5,42.7,27.4,42.4,27.3z"/>
		<g>
			<path class="st4" d="M74.7,32.1c1.9-0.4,4,0.4,5.3,1.8c1.6,1.8,1.9,4.5,0.8,6.6c-0.8,1.6-2.4,2.9-4.3,3.1c-1.8,0.3-3.8-0.4-5-1.8     c-1.8-1.9-2.1-5.1-0.6-7.3C71.8,33.3,73.2,32.4,74.7,32.1z M74.5,32.4c-2.9,0.7-4.8,3.9-4.1,6.7c0.5,2.7,3.3,4.8,6,4.4     c3-0.3,5.3-3.4,4.8-6.4C80.9,34,77.6,31.5,74.5,32.4z"/>
		</g>
		<g>
			<path class="st4" d="M49.4,33.1c2.5-0.6,5.3,0.8,6.4,3.1c1,2,0.7,4.5-0.8,6.2c-1.3,1.5-3.4,2.3-5.4,1.9c-2.6-0.4-4.8-2.9-4.7-5.6     C44.8,36.1,46.8,33.6,49.4,33.1z M50.5,33.1c-2.1,0-4.1,1.3-4.9,3.3c-0.8,1.7-0.6,3.9,0.5,5.4c1.2,1.7,3.3,2.6,5.4,2.3     c2-0.3,3.7-1.8,4.3-3.6c0.6-1.7,0.3-3.8-0.9-5.2C53.9,33.9,52.2,33.1,50.5,33.1z"/>
		</g>
		<g>
			<path class="st4" d="M74.8,34.5c0.9-0.2,1.9-0.1,2.8,0.3c1.1,0.7,1.8,2.1,1.6,3.4c-0.2,1.9-2.2,3.3-4,2.9     c-1.4-0.2-2.6-1.3-2.8-2.7C71.9,36.9,73.1,35,74.8,34.5z M76.1,35c-1.4,0.6-1.4,2.9,0,3.4c1.1,0.6,2.4-0.6,2.3-1.8     C78.4,35.6,77.2,34.5,76.1,35z"/>
		</g>
		<g>
			<path class="st4" d="M50.5,35.1c1.1,0,2.2,0.3,2.9,1.2c1,1.2,1.1,3.1,0.1,4.3c-1.2,1.5-3.6,1.8-5.1,0.5c-1.3-1.1-1.6-3.2-0.6-4.5     C48.3,35.6,49.4,35.1,50.5,35.1z M51,35.6c-1,0.4-1.4,1.7-1,2.6c0.3,0.7,1.2,1.2,1.9,1c1.1-0.3,1.6-1.7,1.1-2.6     C52.7,35.8,51.8,35.3,51,35.6z"/>
		</g>
		<path class="st4" d="M64.9,40.8c0.7,0.2,1.3,0.7,1.6,1.3c0.4,0.8,0.2,1.9-0.4,2.6c0.1-0.7,0.6-1.4,0.3-2.2    C66.2,41.8,65.4,41.4,64.9,40.8z"/>
		<path class="st4" d="M57,44c-0.2-1,0.4-2.1,1.4-2.4c-0.4,0.6-1.1,1-1.1,1.8c-0.2,0.7,0.3,1.4,0.7,1.9c0,0.1-0.1,0.2-0.1,0.2    C57.5,45,57.1,44.6,57,44z"/>
		<path class="st4" d="M39.4,43.3c0.3-0.5,0.8,0.1,1,0.4c1,1.2,2.4,2.7,4.1,2.5c1.2,0,2.4,0.1,3.6,0c1.6-0.2,3-0.8,4.6-0.7    c1.2,0,2.5,0.1,3.3,1c-1.2,0.1-2.5-0.1-3.7,0.3c-1,0.3-1.7,1.1-2.6,1.6c-2,1.1-4.3,1.6-6.6,1.7c-1.1,0.1-2.4,0.2-3.3-0.6    c-1.2-0.8-1.6-2.4-1.3-3.7C38.7,44.9,38.9,44,39.4,43.3z"/>
		<path class="st4" d="M82.5,43.2c0.3-0.5,0.8,0,0.9,0.4c0.5,1.1,0.8,2.4,0.6,3.6c-0.2,1.2-1.1,2.2-2.3,2.6    c-0.8,0.2-1.7,0.1-2.5,0.1c-2.8-0.1-5.6-0.9-7.8-2.6c-1.4-1.1-3.2-0.8-4.9-0.9c0.8-0.9,2.2-1,3.3-1c1.6,0,3.2,0.6,4.8,0.7    c1,0.1,2,0,3,0c0.6,0,1.3,0.1,1.8-0.2C80.7,45.3,81.6,44.2,82.5,43.2z"/>
		<path class="st4" d="M59.4,44.6c0.5,0.8,1.1,1.8,2.2,1.8c1,0,1.5-0.9,2.1-1.5c-0.2,0.8-0.9,1.5-1.7,1.7    C60.8,46.8,59.5,45.8,59.4,44.6z"/>
		<path class="st4" d="M52.7,50.4c1.1-0.3,2.1-0.8,3.2-1c2.6-0.4,5.2-1.1,7.8-0.7c2.1,0.3,4.2,0.5,6.2,1.2c1,0.4,1.9,1,2.9,1.3    c0.7,0.2,1.3,0.6,2,0.8c2.1,0.6,4.4,0.8,6.5,0.1c0.9-0.3,1.6-0.8,2.4-1.2c-0.4,0.7-1.3,1-2,1.3c-2.6,1-5.5,0.5-8.1-0.3    c-1.6,0.1-2.9-1-4.4-1.4c-2.3-0.8-4.8-0.9-7.2-1.2c-1.9,0-3.8,0.4-5.7,0.8c-1.9,0.5-3.6,1.3-5.5,1.8c-2.7,0.6-5.6,0.6-8.4,0.5    c-1.2,0-2.5-0.5-3.2-1.5c0.8,0.4,1.4,1.1,2.3,1.2c1.4,0.2,2.8,0.1,4.3,0.1c1.3-0.1,2.6,0,3.9-0.5"/>
		<g>
			<path class="st4" d="M35.2,55c0.5-0.1,1.1-0.3,1.5,0.1c0.5,0.4,0.4,1.1,0.3,1.7c-0.1,0.7-0.7,1.2-1.3,1.5c-1,0.5-1.2,1.7-1.2,2.7     c0,1.2,0,2.3,0.4,3.4c0.3,0.7,0.8,1.3,1.1,2.1c-0.5,0.2-0.9-0.3-1.2-0.5c-0.8-0.7-1.7-1.2-2.3-2.1c-0.7-1.2-0.9-2.6-0.9-3.9     c0-1.2,0.4-2.3,1-3.2C33.1,55.8,34.2,55.3,35.2,55z M34.8,55.7c-1,0.3-1.8,1.1-2.2,2.1c-0.8,1.7-0.6,3.6,0,5.3     c0.4,1.2,1.5,1.8,2.4,2.5c-0.4-0.8-0.7-1.7-0.8-2.6c-0.1-1.4-0.3-2.9,0.4-4.2c0.3-0.6,1-0.9,1.5-1.3c0.5-0.5,0.6-1.2,0.5-1.9     C36.1,55.1,35.3,55.5,34.8,55.7z"/>
		</g>
		<g>
			<path class="st4" d="M52,55.1c1.1-0.2,2.4,0,3.2,0.9c0.7,0.7,0.6,1.8,0.4,2.7c-0.3,1-1.1,1.7-1.8,2.4c-1.8,2-3.1,4.5-3.4,7.3     c-0.2,1.8,0.3,3.6,0.7,5.4c0.4,1.5,1,2.9,1.8,4.1c0.4,0.6,0.8,1.1,1.1,1.7c0.2,0.3,0,0.8-0.4,0.8c-1.2,0.1-2.3-0.5-3.3-1.2     c-2.1-1.7-4.2-3.6-5.4-6.1c-1.2-2.7-1.9-5.7-1.4-8.6c0.3-1.9,1.1-3.7,2-5.4C47,56.9,49.5,55.6,52,55.1z M47,58.1     c-0.9,0.9-1.4,2.1-2,3.2c-0.9,1.9-1.3,4.1-1.1,6.2c0.3,2.6,1.1,5.1,2.7,7.3c1,1.5,2.4,2.6,3.8,3.8c0.9,0.8,2.1,1.4,3.4,1.3     c-0.5-1-1.3-1.9-1.8-2.9c-0.7-1.2-1.1-2.6-1.4-3.9c-0.5-1.8-0.8-3.7-0.5-5.6c0.4-3,2.1-5.6,4.2-7.7c0.9-0.9,1.5-2.6,0.6-3.7     c-0.7-0.8-1.9-1-2.9-0.7C50.1,56,48.4,56.8,47,58.1z"/>
		</g>
		<g>
			<path class="st4" d="M70.5,55.1c1.1-0.2,2.2,0.1,3.2,0.5c1.8,0.7,3.6,1.8,4.6,3.5c1.4,2.5,2.4,5.3,2.2,8.2     c-0.3,2.8-1.1,5.5-2.7,7.8c-1,1.5-2.4,2.6-3.8,3.8c-1,0.9-2.3,1.6-3.7,1.5c-0.4,0-0.5-0.5-0.4-0.8c0.3-0.6,0.7-1.1,1.1-1.7     c1.5-2.1,2.1-4.7,2.5-7.2c0.5-3.8-1.3-7.6-3.9-10.2c-1-0.9-1.6-2.4-1.2-3.8C68.6,55.8,69.6,55.2,70.5,55.1z M69.9,55.7     c-1,0.4-1.4,1.5-1.1,2.5c0.2,1.3,1.4,2.1,2.2,3.1c2.3,2.7,3.5,6.3,3,9.8c-0.4,2.2-0.9,4.4-2,6.3c-0.5,0.9-1.2,1.7-1.7,2.6     c2.2,0.1,3.8-1.7,5.3-3c2.9-2.5,4.4-6.4,4.6-10.2c0.1-2.7-0.9-5.2-2.2-7.5c-1-1.6-2.7-2.7-4.4-3.3C72.3,55.6,71,55.1,69.9,55.7z"/>
		</g>
		<g>
			<path class="st4" d="M87.4,55c0.9-0.2,1.8,0.1,2.6,0.5c1.4,0.7,2.1,2.2,2.3,3.6c0.1,1.5,0,3.1-0.7,4.5c-0.4,0.9-1.3,1.5-2.1,2.1     c-0.5,0.3-0.9,0.8-1.5,0.9c0.1-1.1,1-1.8,1.2-2.9c0.2-1.5,0.5-3.2-0.2-4.7c-0.4-0.8-1.5-0.9-1.9-1.7C86.8,56.7,86.7,55.6,87.4,55     z M87.6,55.5c-0.5,0.4-0.3,1.1-0.1,1.6c0.3,0.8,1.4,0.9,1.8,1.6c0.8,1.4,0.6,3,0.5,4.5c-0.1,0.8-0.4,1.6-0.8,2.4     c0.8-0.6,1.8-1.1,2.2-2.1c0.6-1.3,0.8-2.7,0.7-4.1c-0.2-1.4-1-3-2.4-3.6C89,55.6,88.3,55.3,87.6,55.5z"/>
		</g>
		<g>
			<path class="st4" d="M41.6,55.6c0.8-0.2,1.7-0.2,2.4,0.4c0.6,0.5,0.8,1.4,0.6,2.1c-0.4,1-1.1,1.8-1.9,2.5c-1,0.9-1.3,2.2-1.7,3.4     c-0.3,1.1-0.6,2.2-0.1,3.3c0.7,1.6,1.6,3.2,2.1,4.9c0.2,0.5,0.2,1.3-0.5,1.2c-1.2-0.3-2.1-1.3-3-2.2c-1-1.2-2.2-2.4-2.8-4     c-0.9-2.4-0.7-5.1,0.1-7.6c0.4-1.1,1.4-1.8,2.3-2.5C39.8,56.7,40.6,55.9,41.6,55.6z M39.3,57.6c-0.8,0.7-1.9,1.2-2.2,2.3     c-0.8,2.3-1,4.9-0.1,7.2c0.5,1.6,1.8,2.7,2.8,4c0.7,0.9,1.7,1.6,2.8,2c-0.4-2.1-1.6-3.9-2.4-5.8c-0.4-1.3,0-2.7,0.4-3.9     c0.3-1.1,0.8-2.2,1.6-3c0.8-0.7,1.6-1.5,1.9-2.5c0.2-1-0.7-1.9-1.6-1.8C41.3,55.9,40.3,56.9,39.3,57.6z"/>
		</g>
		<g>
			<path class="st4" d="M80.6,55.7c1.1-0.4,2.3,0,3.2,0.7c0.9,0.7,1.7,1.3,2.6,2c1,0.8,1.2,2.2,1.4,3.4c0.5,2.8,0,5.9-1.9,8     c-1.2,1.3-2.3,2.9-4,3.6c-0.3,0.1-0.7,0.1-0.8-0.3c-0.1-0.5,0.1-0.9,0.2-1.4c0.6-1.5,1.3-2.9,2-4.4c0.5-1.1,0.2-2.3-0.1-3.3     c-0.4-1.2-0.7-2.4-1.6-3.3c-0.9-0.8-1.8-1.7-2.1-3C79.2,56.9,79.8,56,80.6,55.7z M79.8,57.8c0.3,1.1,1.1,1.9,1.9,2.6     c1,0.9,1.4,2.3,1.8,3.6c0.3,1.1,0.6,2.4,0.2,3.5c-0.8,1.9-1.9,3.6-2.3,5.6c1.2-0.4,2.2-1.3,3-2.2c1-1.2,2.1-2.3,2.6-3.7     c0.9-2.2,0.7-4.7,0-6.9c-0.2-0.6-0.5-1.2-1-1.6c-0.8-0.7-1.6-1.3-2.4-1.9c-0.6-0.5-1.3-0.8-2.1-0.7C80.5,56,79.6,56.9,79.8,57.8z     "/>
		</g>
	</g>
</g>
</svg>